<svg xmlns="http://www.w3.org/2000/svg" viewBox="0 0 746.57 66.12"><defs><style>.cls-1{fill:#fff;}</style></defs><title>Asset 2</title><g id="Layer_2" data-name="Layer 2"><g id="Layer_1-2" data-name="Layer 1"><path class="cls-1" d="M21.75,56.48A10.85,10.85,0,0,0,25.12,56a9,9,0,0,0,2.81-1.47,6.69,6.69,0,0,0,1.88-2.29,5.87,5.87,0,0,0,.58-3H41.73A14,14,0,0,1,40.24,56a16.64,16.64,0,0,1-4.3,5.36,20.65,20.65,0,0,1-6.33,3.52A22.76,22.76,0,0,1,22,66.12a23.2,23.2,0,0,1-9.56-1.84,19.21,19.21,0,0,1-6.85-5,21.72,21.72,0,0,1-4.15-7.5A29.54,29.54,0,0,1,0,42.51v-1.3A30,30,0,0,1,1.38,32a21.29,21.29,0,0,1,4.15-7.5,19.73,19.73,0,0,1,6.85-5.06,22.74,22.74,0,0,1,9.49-1.86,23.87,23.87,0,0,1,8,1.3,18.93,18.93,0,0,1,6.33,3.65,16.25,16.25,0,0,1,4.13,5.71,17.56,17.56,0,0,1,1.38,7.5H30.4a7.88,7.88,0,0,0-.52-3.29,7.4,7.4,0,0,0-1.77-2.68A8.8,8.8,0,0,0,25.3,28a9.41,9.41,0,0,0-3.59-.67A8.72,8.72,0,0,0,17,28.46a8.65,8.65,0,0,0-3,3.11A14,14,0,0,0,12.48,36,29.12,29.12,0,0,0,12,41.21v1.3a31.12,31.12,0,0,0,.43,5.25A13.44,13.44,0,0,0,14,52.22a8.64,8.64,0,0,0,3,3.09A8.92,8.92,0,0,0,21.75,56.48Z"/><path class="cls-1" d="M85.57,17.56a32.17,32.17,0,0,1,5,.37,29.12,29.12,0,0,1,3.74.8l-1.77,12a41.47,41.47,0,0,0-4.86-.84A42.2,42.2,0,0,0,83,29.58a14.89,14.89,0,0,0-8.11,1.95,11.78,11.78,0,0,0-4.56,5.58V65.21h-12V18.42h11.2L70,26.08a21.48,21.48,0,0,1,6.83-6.25A17.23,17.23,0,0,1,85.57,17.56Z"/><path class="cls-1" d="M125.6,66.08a26.11,26.11,0,0,1-9.82-1.77,23.21,23.21,0,0,1-7.57-4.82,21,21,0,0,1-4.86-7.18,22.89,22.89,0,0,1-1.71-8.84V41.73a27.36,27.36,0,0,1,1.69-9.79A22.73,22.73,0,0,1,108,24.31a21.26,21.26,0,0,1,7.18-5,22.77,22.77,0,0,1,9-1.77,23.07,23.07,0,0,1,9,1.67,18.73,18.73,0,0,1,6.7,4.69,20.28,20.28,0,0,1,4.17,7.29,29.47,29.47,0,0,1,1.43,9.4v5.1H113.84a13,13,0,0,0,1.41,4.35,11.89,11.89,0,0,0,6.46,5.6,13.33,13.33,0,0,0,4.63.78,18.08,18.08,0,0,0,3.52-.35,17.31,17.31,0,0,0,3.35-1,15.11,15.11,0,0,0,3-1.67,11.64,11.64,0,0,0,2.42-2.33l6,6.49a17.2,17.2,0,0,1-2.92,3.13,19.86,19.86,0,0,1-4.24,2.72A27.28,27.28,0,0,1,132,65.34,26.87,26.87,0,0,1,125.6,66.08Zm-1.43-38.79a9.45,9.45,0,0,0-3.72.71,8.77,8.77,0,0,0-3,2.05,11.84,11.84,0,0,0-2.14,3.2,17.44,17.44,0,0,0-1.3,4.15h19.72v-1a11.38,11.38,0,0,0-.74-3.59,8.45,8.45,0,0,0-1.86-2.92,8.69,8.69,0,0,0-3-1.95A10.66,10.66,0,0,0,124.17,27.29Z"/><path class="cls-1" d="M183.06,65.21a10.54,10.54,0,0,1-.73-2q-.3-1.12-.52-2.38a15.78,15.78,0,0,1-2.29,2,15.94,15.94,0,0,1-2.88,1.67,17.33,17.33,0,0,1-3.48,1.12,19.48,19.48,0,0,1-4.11.41,20.07,20.07,0,0,1-6.59-1,15.65,15.65,0,0,1-5.17-2.9,13.17,13.17,0,0,1-3.37-4.43,13,13,0,0,1-1.21-5.6q0-7.39,5.51-11.44t16.45-4h6.7V33.86a6.8,6.8,0,0,0-2.21-5.34q-2.21-2-6.36-2-3.68,0-5.36,1.58a5.5,5.5,0,0,0-1.69,4.22h-12a12.66,12.66,0,0,1,1.32-5.67A13.9,13.9,0,0,1,158.91,22a19.32,19.32,0,0,1,6.18-3.22,27,27,0,0,1,8.37-1.19,28.8,28.8,0,0,1,7.89,1,19,19,0,0,1,6.33,3.07,14.14,14.14,0,0,1,4.19,5.12,16.09,16.09,0,0,1,1.51,7.16V54a33.72,33.72,0,0,0,.48,6.23,15.9,15.9,0,0,0,1.38,4.24v.73ZM171.6,56.78a12.57,12.57,0,0,0,3.37-.43,13,13,0,0,0,2.81-1.12,10,10,0,0,0,2.16-1.58,8.29,8.29,0,0,0,1.43-1.79v-8h-6.14a18.55,18.55,0,0,0-4.8.54,9.18,9.18,0,0,0-3.24,1.51,6,6,0,0,0-1.86,2.33,7.21,7.21,0,0,0-.6,3,5.27,5.27,0,0,0,1.71,4A7.32,7.32,0,0,0,171.6,56.78Z"/><path class="cls-1" d="M226.81,7V18.42h17.47v8.86H226.81V47.4a13.33,13.33,0,0,0,.58,4.26,6.56,6.56,0,0,0,1.67,2.72,6.2,6.2,0,0,0,2.62,1.45,12.68,12.68,0,0,0,3.44.43q1.38,0,2.83-.13t2.77-.32q1.32-.19,2.46-.41t2-.43l1.17,8.26a14.62,14.62,0,0,1-2.94,1.28,28.4,28.4,0,0,1-3.59.89q-1.9.35-4,.54t-4,.19a22.59,22.59,0,0,1-7-1,13.72,13.72,0,0,1-5.36-3.16A14.16,14.16,0,0,1,216,56.5a23.13,23.13,0,0,1-1.21-7.93V27.29H204.11V18.42h10.68V7Z"/><path class="cls-1" d="M258.89,18.42h25.47v37H297v9.77H258.89V55.44h13.32V28.24H258.89Zm12.45-12a6.6,6.6,0,0,1,.5-2.57,5.78,5.78,0,0,1,1.41-2A6.52,6.52,0,0,1,275.43.52,8.06,8.06,0,0,1,278.26,0a7.06,7.06,0,0,1,5.08,1.79,6.08,6.08,0,0,1,1.88,4.61,6.08,6.08,0,0,1-1.88,4.6,7.05,7.05,0,0,1-5.08,1.79,8,8,0,0,1-2.83-.48,6.5,6.5,0,0,1-2.18-1.32,5.75,5.75,0,0,1-1.41-2A6.59,6.59,0,0,1,271.34,6.45Z"/><path class="cls-1" d="M326.51,51.33l.61,3.37.61-3.24,10.29-33h12.54L332.78,65.21H321.49L303.63,18.42h12.54Z"/><path class="cls-1" d="M380.25,66.08a26.11,26.11,0,0,1-9.82-1.77,23.2,23.2,0,0,1-7.57-4.82A21,21,0,0,1,358,52.3a22.89,22.89,0,0,1-1.71-8.84V41.73A27.36,27.36,0,0,1,358,31.94a22.73,22.73,0,0,1,4.71-7.63,21.26,21.26,0,0,1,7.18-5,22.77,22.77,0,0,1,9-1.77,23.07,23.07,0,0,1,9,1.67,18.73,18.73,0,0,1,6.7,4.69,20.27,20.27,0,0,1,4.17,7.29,29.47,29.47,0,0,1,1.43,9.4v5.1H368.49a13,13,0,0,0,1.41,4.35,11.89,11.89,0,0,0,6.46,5.6,13.33,13.33,0,0,0,4.63.78,18.09,18.09,0,0,0,3.52-.35,17.31,17.31,0,0,0,3.35-1,15.11,15.11,0,0,0,3-1.67,11.63,11.63,0,0,0,2.42-2.33l6,6.49a17.18,17.18,0,0,1-2.92,3.13,19.85,19.85,0,0,1-4.24,2.72,27.28,27.28,0,0,1-5.43,1.92A26.88,26.88,0,0,1,380.25,66.08Zm-1.43-38.79a9.45,9.45,0,0,0-3.72.71,8.77,8.77,0,0,0-3,2.05,11.84,11.84,0,0,0-2.14,3.2,17.42,17.42,0,0,0-1.3,4.15h19.72v-1a11.37,11.37,0,0,0-.74-3.59,8.45,8.45,0,0,0-1.86-2.92,8.69,8.69,0,0,0-3-1.95A10.65,10.65,0,0,0,378.82,27.29Z"/><path class="cls-1" d="M438.66,52.37a3.61,3.61,0,0,0-.5-1.9,4.68,4.68,0,0,0-1.77-1.54A16.21,16.21,0,0,0,433,47.61q-2.12-.6-5.36-1.21a51.67,51.67,0,0,1-7.5-2.05,23.61,23.61,0,0,1-5.82-3,13.54,13.54,0,0,1-3.78-4A10.12,10.12,0,0,1,409.17,32a11.76,11.76,0,0,1,1.38-5.54,14.06,14.06,0,0,1,4-4.63,20.24,20.24,0,0,1,6.31-3.16,28,28,0,0,1,8.39-1.17A31.07,31.07,0,0,1,438,18.71a20.78,20.78,0,0,1,6.59,3.16,13.86,13.86,0,0,1,4.13,4.78,12.93,12.93,0,0,1,1.43,6h-12a5.71,5.71,0,0,0-2.21-4.56q-2.21-1.84-6.7-1.84-4.2,0-6.33,1.51a4.45,4.45,0,0,0-2.14,3.72,4.32,4.32,0,0,0,.43,1.92,4.12,4.12,0,0,0,1.54,1.6,12.21,12.21,0,0,0,3,1.3,33.66,33.66,0,0,0,4.84,1,63.56,63.56,0,0,1,7.87,1.77,24.17,24.17,0,0,1,6.27,2.79A13,13,0,0,1,448.84,46a10.94,10.94,0,0,1,1.49,5.82,11.36,11.36,0,0,1-1.49,5.73,13.83,13.83,0,0,1-4.24,4.52,21.46,21.46,0,0,1-6.64,3,33.09,33.09,0,0,1-8.69,1.06A28.73,28.73,0,0,1,420,64.74a21.64,21.64,0,0,1-6.77-3.61,15.33,15.33,0,0,1-4.13-5.06,12.69,12.69,0,0,1-1.41-5.69h11.46a6.59,6.59,0,0,0,1,3.27,7.14,7.14,0,0,0,2.33,2.21,10.76,10.76,0,0,0,3.26,1.23,18.26,18.26,0,0,0,3.78.39A13.15,13.15,0,0,0,436.32,56,4.22,4.22,0,0,0,438.66,52.37Z"/><path class="cls-1" d="M471.56,58.25a8.59,8.59,0,0,1,.56-3.13,7,7,0,0,1,1.64-2.51,8,8,0,0,1,2.64-1.69,10.1,10.1,0,0,1,7,0A7.73,7.73,0,0,1,486,52.61a7.45,7.45,0,0,1,1.64,2.51,8.32,8.32,0,0,1,.58,3.13,8,8,0,0,1-.58,3.07,7.29,7.29,0,0,1-4.26,4.15,10.43,10.43,0,0,1-7,0,7.67,7.67,0,0,1-2.64-1.67,7.07,7.07,0,0,1-1.64-2.49A8.3,8.3,0,0,1,471.56,58.25Z"/><path class="cls-1" d="M521,18.38l-1.08,5.75a20.83,20.83,0,0,1,1.79-2.64,11.92,11.92,0,0,1,2.16-2.1A9.63,9.63,0,0,1,526.53,18a9.73,9.73,0,0,1,3.18-.5,7.81,7.81,0,0,1,4.35,1.23,5.82,5.82,0,0,1,2.31,3.78,16.26,16.26,0,0,1,3.87-3.61,8.81,8.81,0,0,1,5.08-1.36,8,8,0,0,1,3.27.69A6.75,6.75,0,0,1,550.87,20a9,9,0,0,1,1.49,2.53,14.71,14.71,0,0,1,.82,3,19.83,19.83,0,0,1,.26,3.2q0,1.62-.13,3.09l-5.54,33.38H537.1l5.66-33.51a11.51,11.51,0,0,0,.09-1.45,4.47,4.47,0,0,0-.21-1.41,2.43,2.43,0,0,0-.71-1.08,2.08,2.08,0,0,0-1.4-.43,3.51,3.51,0,0,0-2.12.63,10.51,10.51,0,0,0-1.64,1.49l-6.27,35.76H520.15l5.66-33.55c0-.46.05-1,.07-1.47a4.31,4.31,0,0,0-.17-1.41,2.15,2.15,0,0,0-.69-1,2.23,2.23,0,0,0-1.45-.41,3.29,3.29,0,0,0-2.33.84,9.35,9.35,0,0,0-1.6,2l-6.1,35.07H502.86L511,18.42Z"/><path class="cls-1" d="M566.63,18.42h24.78l-6.44,37h12.32l-1.73,9.77H558.5l1.69-9.77h12.93l4.71-27.2H564.9ZM580.77,6.66A6.74,6.74,0,0,1,581.29,4a6.28,6.28,0,0,1,1.45-2.1A6.79,6.79,0,0,1,584.9.5a8,8,0,0,1,5.25-.11,6.25,6.25,0,0,1,2.12,1.25,6.07,6.07,0,0,1,2,4.58,6.74,6.74,0,0,1-.52,2.68,6.37,6.37,0,0,1-3.59,3.48,7.19,7.19,0,0,1-2.68.5,7,7,0,0,1-2.59-.39,6.26,6.26,0,0,1-2.12-1.25,6.07,6.07,0,0,1-2-4.58Z"/><path class="cls-1" d="M634,65.21a9.35,9.35,0,0,1-.41-2.18q-.06-1.06,0-2.18a20.16,20.16,0,0,1-5.95,3.91,17.35,17.35,0,0,1-7,1.32,16.91,16.91,0,0,1-5.6-1,14.23,14.23,0,0,1-4.63-2.72,12,12,0,0,1-3-4.26,12.69,12.69,0,0,1-1-5.62A14.93,14.93,0,0,1,607.59,47a14.09,14.09,0,0,1,2.79-4.15,15.93,15.93,0,0,1,4-3,25.15,25.15,0,0,1,4.8-1.92,31.7,31.7,0,0,1,5.25-1,48.11,48.11,0,0,1,5.34-.3l6.75.09.56-2.9a7.24,7.24,0,0,0-.11-3,5.24,5.24,0,0,0-1.25-2.27,5.81,5.81,0,0,0-2.23-1.43,9.38,9.38,0,0,0-3-.54,8.08,8.08,0,0,0-5.06,1.36,6.84,6.84,0,0,0-2.64,4.43L611,32.39a13.19,13.19,0,0,1,2.21-6.72A16.43,16.43,0,0,1,618.12,21a21.51,21.51,0,0,1,6.51-2.68,29.13,29.13,0,0,1,7.07-.8,24,24,0,0,1,7,1.17,16.63,16.63,0,0,1,5.69,3.13A13.07,13.07,0,0,1,648,26.9a14.75,14.75,0,0,1,.84,7l-3.24,20.11q-.39,2.55-.58,5.21a12.36,12.36,0,0,0,.71,5.17l0,.78ZM623.7,56.82a12,12,0,0,0,5.77-1.25,14.2,14.2,0,0,0,4.65-3.68l1.47-8.09-5.32,0a20.5,20.5,0,0,0-3.93.39,13.41,13.41,0,0,0-3.68,1.28,8.88,8.88,0,0,0-2.85,2.36,7.45,7.45,0,0,0-1.47,3.72,5.1,5.1,0,0,0,.17,2.33,3.81,3.81,0,0,0,1.08,1.64,5,5,0,0,0,1.79,1A7.42,7.42,0,0,0,623.7,56.82Z"/><path class="cls-1" d="M670.3,18.38l-1.08,5.75A20.73,20.73,0,0,1,671,21.5a11.92,11.92,0,0,1,2.16-2.1A9.63,9.63,0,0,1,675.82,18a9.74,9.74,0,0,1,3.18-.5,7.81,7.81,0,0,1,4.35,1.23,5.83,5.83,0,0,1,2.31,3.78,16.28,16.28,0,0,1,3.87-3.61,8.81,8.81,0,0,1,5.08-1.36,8,8,0,0,1,3.26.69A6.76,6.76,0,0,1,700.16,20a9,9,0,0,1,1.49,2.53,14.7,14.7,0,0,1,.82,3,19.72,19.72,0,0,1,.26,3.2q0,1.62-.13,3.09l-5.54,33.38H686.39l5.67-33.51a11.69,11.69,0,0,0,.09-1.45,4.44,4.44,0,0,0-.22-1.41,2.43,2.43,0,0,0-.71-1.08,2.08,2.08,0,0,0-1.41-.43,3.51,3.51,0,0,0-2.12.63A10.51,10.51,0,0,0,686,29.45l-6.27,35.76H669.44l5.66-33.55c0-.46.05-1,.07-1.47a4.34,4.34,0,0,0-.17-1.41,2.15,2.15,0,0,0-.69-1,2.23,2.23,0,0,0-1.45-.41,3.29,3.29,0,0,0-2.33.84,9.35,9.35,0,0,0-1.6,2l-6.1,35.07H652.14l8.13-46.79Z"/><path class="cls-1" d="M715.92,18.42h24.78l-6.44,37h12.32l-1.73,9.77H707.79l1.69-9.77H722.4l4.71-27.2H714.18ZM730.05,6.66A6.74,6.74,0,0,1,730.57,4,6.28,6.28,0,0,1,732,1.88,6.79,6.79,0,0,1,734.18.5a8,8,0,0,1,5.25-.11,6.25,6.25,0,0,1,2.12,1.25,6.07,6.07,0,0,1,2,4.58A6.74,6.74,0,0,1,743,8.91a6.37,6.37,0,0,1-3.59,3.48,7.19,7.19,0,0,1-2.68.5,7,7,0,0,1-2.59-.39A6.26,6.26,0,0,1,732,11.25a6.07,6.07,0,0,1-2-4.58Z"/></g></g></svg>